<?xml version="1.0" encoding="utf-8"?>
<!-- Generator: Adobe Illustrator 21.0.2, SVG Export Plug-In . SVG Version: 6.00 Build 0)  -->
<svg version="1.1" id="Calque_1" xmlns="http://www.w3.org/2000/svg" xmlns:xlink="http://www.w3.org/1999/xlink" x="0px" y="0px"
	 viewBox="0 0 25 24.9" style="enable-background:new 0 0 25 24.9;" xml:space="preserve">
<style type="text/css">
	.st0{fill-rule:evenodd;clip-rule:evenodd;fill:#1D1D1B;}
</style>
<g>
	<path class="st0" d="M8.4,12.4c0.1,0,0.2,0,0.3,0c1.2,0,2.4,0,3.6,0c0.2,0,0.3,0.1,0.4,0.3c-0.1,0-0.2,0-0.3,0c-1.3,0-2.6,0-3.9,0
		L8.4,12.4z"/>
	<path class="st0" d="M12.7,20.8c-0.3,0.1-0.4,0-0.5-0.3C10.5,15.2,8.8,9.9,7.1,4.6C7,4.4,6.9,4.3,6.7,4.4c-0.2,0-0.5,0-0.7,0
		c0-0.1,0-0.2,0-0.3c1.1,0,2.1,0,3.2,0c0,0.1,0,0.2,0,0.3c-0.3,0-0.6,0-1,0c1.6,4.8,3.1,9.6,4.7,14.5c0.1-0.4,0.2-0.7,0.3-1.1
		c1.3-4.1,2.6-8.1,3.9-12.2c0.4-1.4,1-2.7,1.9-3.8c0.6-0.8,1.3-1.5,2.4-1.7c1.2-0.2,2.2,0,3.1,0.9c0.5,0.6,0.6,1.4,0.2,2
		c-0.3,0.5-0.9,0.6-1.4,0.3c-0.4-0.2-0.5-0.7-0.3-1.1c0.1-0.1,0.2-0.2,0.3-0.4c0.4-0.4,0.4-0.8-0.1-1.2c-0.4-0.3-0.9-0.4-1.4-0.4
		c-1.2,0.1-2,0.8-2.7,1.7c-0.8,1.1-1.3,2.4-1.8,3.7c-0.7,2-1.3,4.1-2,6.1c-0.9,3-1.9,5.9-2.8,8.9C12.7,20.7,12.7,20.8,12.7,20.8z"/>
	<path class="st0" d="M12.3,4.1c0.3-0.1,0.4,0,0.5,0.3c1.7,5.3,3.4,10.6,5.1,15.9c0.1,0.2,0.2,0.3,0.4,0.3c0.2,0,0.5,0,0.7,0
		c0,0.1,0,0.2,0,0.3c-1.1,0-2.1,0-3.2,0c0-0.1,0-0.2,0-0.3c0.3,0,0.6,0,1,0c-1.6-4.8-3.1-9.6-4.7-14.5c-0.1,0.4-0.2,0.7-0.3,1.1
		c-1.3,4.1-2.6,8.1-3.9,12.2c-0.4,1.4-1,2.7-1.9,3.8c-0.6,0.8-1.3,1.5-2.4,1.7c-1.2,0.2-2.2,0-3.1-0.9c-0.5-0.6-0.6-1.4-0.2-2
		c0.3-0.5,0.9-0.6,1.4-0.3c0.4,0.2,0.5,0.7,0.3,1.1c-0.1,0.1-0.2,0.2-0.3,0.4c-0.4,0.4-0.4,0.8,0.1,1.2c0.4,0.3,0.9,0.4,1.3,0.4
		c1.2-0.1,2-0.8,2.7-1.7c0.8-1.1,1.3-2.4,1.8-3.7c0.7-2,1.3-4.1,2-6.1c0.9-3,1.9-5.9,2.8-8.9C12.3,4.2,12.3,4.2,12.3,4.1z"/>
</g>
</svg>
