<?xml version="1.0" encoding="utf-8"?>
<!-- Generator: Adobe Illustrator 21.0.2, SVG Export Plug-In . SVG Version: 6.00 Build 0)  -->
<svg version="1.1" id="Calque_1" xmlns="http://www.w3.org/2000/svg" xmlns:xlink="http://www.w3.org/1999/xlink" x="0px" y="0px"
	 viewBox="0 0 289.3 212.6" style="enable-background:new 0 0 289.3 212.6;" xml:space="preserve">
<style type="text/css">
	.st0{fill-rule:evenodd;clip-rule:evenodd;fill:#ECECEC;}
	.st1{fill:#1D1D1B;}
</style>
<g>
	<path class="st0" d="M113.2,105.5c1.1,0,1.8,0,2.5,0c10.3,0,20.5,0.1,30.8-0.1c2.1,0,3,0.7,3,2.9c-0.7,0-1.4,0-2.1,0
		c-11.1,0-22.2,0-33.2,0L113.2,105.5z"/>
	<path class="st0" d="M149.7,177.6c-2.2,0.6-3.2,0-4-2.2c-14.5-45.3-29.2-90.6-43.8-136c-0.6-1.9-1.4-2.4-3.3-2.3c-2,0.2-3.9,0-6,0
		c0-0.9,0-1.6,0-2.4c9.1,0,18.2,0,27.4,0c0,0.7,0,1.4,0,2.3c-2.6,0-5.2,0-8.1,0c13.3,41.3,26.6,82.2,40,123.8c1.1-3.3,2-6.2,2.9-9
		c11.1-34.7,22.2-69.5,33.4-104.1c3.8-11.6,8.6-22.8,16.1-32.7c5.2-6.9,11.4-12.5,20.1-14.2c10-2.1,19-0.1,26.3,7.5
		c4.5,4.8,5.2,12,1.9,17.1c-2.7,4.2-7.6,5.4-11.7,2.9c-3.4-2.1-4.4-6.1-2.3-9.5c0.7-1.1,1.7-2.1,2.6-3.1c3.3-3.5,3.1-7.2-0.8-10.2
		c-3.4-2.6-7.3-3.4-11.5-3.2C218.7,3,211.9,9.2,206.3,17c-6.9,9.6-11.5,20.4-15.2,31.5c-5.8,17.3-11.2,34.6-16.8,52
		c-8.1,25.2-16.1,50.4-24.1,75.6C150,176.6,149.9,177.1,149.7,177.6z"/>
	<path class="st0" d="M146.5,35c2.2-0.6,3.2,0,4,2.2c14.6,45.3,29.2,90.6,43.8,136c0.6,1.9,1.4,2.4,3.3,2.3c2-0.2,3.9,0,6,0
		c0,0.9,0,1.6,0,2.4c-9.1,0-18.2,0-27.4,0c0-0.7,0-1.4,0-2.2c2.6,0,5.2,0,8.1,0c-13.3-41.3-26.6-82.2-40-123.8c-1.1,3.3-2,6.2-3,9
		c-11.1,34.7-22.2,69.5-33.4,104.1c-3.8,11.6-8.7,22.8-16.1,32.7c-5.2,6.9-11.4,12.4-20.1,14.2c-10,2.1-19.1,0.1-26.3-7.5
		c-4.5-4.8-5.2-12-1.9-17.1c2.7-4.2,7.6-5.4,11.7-2.9c3.4,2.1,4.4,6.1,2.3,9.5c-0.7,1.1-1.7,2.1-2.6,3.1c-3.3,3.5-3.1,7.2,0.8,10.2
		c3.4,2.6,7.3,3.4,11.5,3.1c10.3-0.7,17.1-6.9,22.7-14.8c6.9-9.6,11.5-20.4,15.2-31.5c5.8-17.3,11.2-34.6,16.7-51.9
		c8.1-25.2,16.1-50.4,24.1-75.6C146.1,36,146.3,35.5,146.5,35z"/>
</g>
<g>
	<path class="st1" d="M39.7,89.9l-3.3,8.4h-1.8l11.2-27.9l11.2,27.9h-3l-3.4-8.4H39.7z M40.2,88.7H50l-4.9-12.5L40.2,88.7z"/>
	<path class="st1" d="M64,96.9h10.4v1.5H61V71.1h3V96.9z"/>
	<path class="st1" d="M81.9,89.9l-3.3,8.4h-1.8l11.2-27.9l11.2,27.9h-3l-3.4-8.4H81.9z M82.4,88.7h9.9l-4.9-12.5L82.4,88.7z"/>
	<path class="st1" d="M106.2,98.4h-3V71.1h3V98.4z"/>
	<path class="st1" d="M115.6,75v23.4h-1.6V71.1h2.5l16.1,21v-21h1.6v28L115.6,75z"/>
	<path class="st1" d="M163.7,99.1l-11.5-28h3.1l9.1,22.3l9.1-22.3h1.7L163.7,99.1z"/>
	<path class="st1" d="M189.4,99.1c-1.8,0-3.4-0.3-5-1c-1.6-0.7-3-1.7-4.2-3c-1.3-1.3-2.2-2.9-2.9-4.6c-0.7-1.7-1-3.6-1-5.6
		c0-2,0.3-3.9,1-5.6c0.7-1.7,1.6-3.3,2.9-4.6c1.2-1.3,2.6-2.3,4.2-3c1.6-0.7,3.2-1,5-1c1.7,0,3.4,0.3,5,1c1.6,0.7,3,1.7,4.2,3
		c1.3,1.4,2.2,2.9,2.9,4.6s1,3.6,1,5.6c0,2-0.3,3.9-1,5.6c-0.7,1.7-1.6,3.3-2.9,4.6c-1.3,1.3-2.7,2.3-4.2,3
		C192.8,98.7,191.1,99.1,189.4,99.1z M199.2,84.8c0-3.9-0.9-7.1-2.7-9.5c-1.8-2.4-4.2-3.6-7.1-3.6c-2.9,0-5.3,1.2-7.1,3.6
		c-1.8,2.4-2.7,5.6-2.7,9.5c0,3.9,0.9,7.1,2.7,9.5c1.8,2.4,4.2,3.6,7.1,3.6c2.9,0,5.3-1.2,7.1-3.6C198.3,91.9,199.2,88.7,199.2,84.8
		z"/>
	<path class="st1" d="M230.1,87.3v7.4c-1.2,1.3-2.7,2.4-4.5,3.2c-1.8,0.8-3.6,1.2-5.4,1.2c-1.9,0-3.8-0.3-5.4-1
		c-1.7-0.7-3.1-1.7-4.4-3c-1.3-1.3-2.2-2.8-2.8-4.6c-0.6-1.7-0.9-3.7-0.9-6c0-1.9,0.3-3.7,0.9-5.4c0.6-1.7,1.5-3.2,2.7-4.5
		c1.2-1.3,2.7-2.4,4.3-3.1c1.6-0.7,3.4-1.1,5.3-1.1c2.3,0,4.3,0.5,6,1.5c1.7,1,3,2.5,3.9,4.4l-1.3,0.7c-0.8-1.8-1.9-3.2-3.3-4.1
		c-1.4-0.9-3-1.4-4.8-1.4c-3.1,0-5.7,1.2-7.6,3.5c-1.9,2.3-2.9,5.4-2.9,9.2c0,4.1,1,7.4,2.9,9.9c2,2.5,4.5,3.8,7.6,3.8
		c1.4,0,2.7-0.3,4-0.9c1.2-0.6,2.2-1.4,2.9-2.4v-7.3H230.1z"/>
	<path class="st1" d="M239.3,96.9h12.8v1.5h-15.9V71.1h15.4v1.4h-12.4v11.2h11.6v1.4h-11.6V96.9z"/>
	<path class="st1" d="M1.4,133.2H0v-12.7h3.8c1.5,0,2.6,0.3,3.5,0.9c0.8,0.6,1.2,1.5,1.2,2.6c0,0.9-0.4,1.7-1.1,2.3
		c-0.7,0.6-1.7,0.8-2.9,0.8c-0.1,0-0.2,0-0.3,0c-0.1,0-0.1,0-0.2,0l4.3,6.1H6.7l-4.6-6.6H4c0.9,0,1.7-0.2,2.2-0.7
		c0.5-0.5,0.8-1.1,0.8-1.9c0-0.9-0.3-1.6-0.9-2.1s-1.4-0.7-2.6-0.7H1.4V133.2z"/>
	<path class="st1" d="M20.1,127.1v6.1h-1.4v-12.7h1.4v5.9h6.8v-5.9h1.4v12.7h-1.4v-6.1H20.1z"/>
	<path class="st1" d="M44.6,133.5c-0.8,0-1.6-0.2-2.3-0.5c-0.7-0.3-1.4-0.8-2-1.4c-0.6-0.6-1-1.3-1.3-2.2s-0.5-1.7-0.5-2.6
		s0.2-1.8,0.5-2.6s0.8-1.5,1.4-2.2c0.6-0.6,1.2-1.1,2-1.4s1.5-0.5,2.3-0.5c0.8,0,1.6,0.2,2.3,0.5c0.7,0.3,1.4,0.8,1.9,1.4
		c0.6,0.6,1,1.4,1.4,2.2c0.3,0.8,0.5,1.7,0.5,2.6s-0.2,1.8-0.5,2.6c-0.3,0.8-0.7,1.5-1.3,2.2c-0.6,0.6-1.2,1.1-2,1.4
		C46.2,133.4,45.4,133.5,44.6,133.5z M49.2,126.9c0-1.8-0.4-3.3-1.3-4.4s-2-1.7-3.3-1.7s-2.5,0.6-3.3,1.7c-0.9,1.1-1.3,2.6-1.3,4.4
		c0,1.8,0.4,3.3,1.3,4.4c0.9,1.1,2,1.7,3.3,1.7s2.5-0.6,3.3-1.7S49.2,128.7,49.2,126.9z M42,119.1l2-3.3h1.3l2,3.3h-0.8l-1.8-2.6
		l-1.8,2.6H42z"/>
	<path class="st1" d="M61.7,122.3v10.9h-0.8v-12.7h1.2l7.5,9.8v-9.8h0.8v13L61.7,122.3z"/>
	<path class="st1" d="M82.8,132.5h6v0.7h-7.4v-12.7h7.2v0.7h-5.8v5.2h5.4v0.6h-5.4V132.5z"/>
	<path class="st1" d="M114,133.2h-1.4v-12.7h3.8c1.5,0,2.6,0.3,3.5,0.9c0.8,0.6,1.2,1.5,1.2,2.6c0,0.9-0.4,1.7-1.1,2.3
		c-0.7,0.6-1.7,0.8-2.9,0.8c-0.1,0-0.2,0-0.3,0c-0.1,0-0.1,0-0.2,0l4.3,6.1h-1.7l-4.6-6.6h1.9c0.9,0,1.7-0.2,2.2-0.7
		c0.5-0.5,0.8-1.1,0.8-1.9c0-0.9-0.3-1.6-0.9-2.1s-1.4-0.7-2.6-0.7H114V133.2z"/>
	<path class="st1" d="M132.7,133.2h-1.4v-12.7h1.4V133.2z"/>
	<path class="st1" d="M147.5,133.5l-5.4-13h1.4l4.2,10.4l4.2-10.4h0.8L147.5,133.5z"/>
	<path class="st1" d="M163.7,132.5h6v0.7h-7.4v-12.7h7.2v0.7h-5.8v5.2h5.4v0.6h-5.4V132.5z"/>
	<path class="st1" d="M193.5,133.2v-12.7h2.7c2.4,0,4.3,0.6,5.6,1.8s2,2.8,2,4.8c0,0.8-0.1,1.6-0.4,2.3c-0.3,0.7-0.7,1.4-1.2,2
		c-0.5,0.6-1.2,1.1-2,1.4c-0.8,0.3-1.7,0.5-2.7,0.5H193.5z M194.9,121.2v11.4h1.8c1.8,0,3.1-0.5,4.1-1.5c1-1,1.5-2.4,1.5-4.2
		c0-1.8-0.5-3.2-1.5-4.2c-1-1-2.5-1.5-4.3-1.5H194.9z"/>
	<path class="st1" d="M215.4,133.2H214v-12.7h3.8c1.5,0,2.6,0.3,3.5,0.9c0.8,0.6,1.2,1.5,1.2,2.6c0,0.9-0.4,1.7-1.1,2.3
		c-0.7,0.6-1.7,0.8-2.9,0.8c-0.1,0-0.2,0-0.3,0c-0.1,0-0.1,0-0.2,0l4.3,6.1h-1.7l-4.6-6.6h1.9c0.9,0,1.7-0.2,2.2-0.7
		c0.5-0.5,0.8-1.1,0.8-1.9c0-0.9-0.3-1.6-0.9-2.1c-0.6-0.5-1.4-0.7-2.6-0.7h-2.1V133.2z"/>
	<path class="st1" d="M237.8,133.5c-0.8,0-1.6-0.2-2.3-0.5c-0.7-0.3-1.4-0.8-2-1.4c-0.6-0.6-1-1.3-1.3-2.2s-0.5-1.7-0.5-2.6
		s0.2-1.8,0.5-2.6s0.8-1.5,1.4-2.2c0.6-0.6,1.2-1.1,2-1.4s1.5-0.5,2.3-0.5s1.6,0.2,2.3,0.5s1.4,0.8,1.9,1.4c0.6,0.6,1,1.4,1.4,2.2
		s0.5,1.7,0.5,2.6s-0.2,1.8-0.5,2.6s-0.7,1.5-1.3,2.2c-0.6,0.6-1.2,1.1-2,1.4C239.4,133.4,238.7,133.5,237.8,133.5z M242.4,126.9
		c0-1.8-0.4-3.3-1.3-4.4s-2-1.7-3.3-1.7c-1.4,0-2.5,0.6-3.3,1.7s-1.3,2.6-1.3,4.4c0,1.8,0.4,3.3,1.3,4.4s2,1.7,3.3,1.7
		c1.4,0,2.5-0.6,3.3-1.7S242.4,128.7,242.4,126.9z"/>
	<path class="st1" d="M255.6,133.2h-1.4v-12.7h1.4V133.2z"/>
	<path class="st1" d="M268,133.2v-12.1h-3.2v-0.7h7.7v0.7h-3.2v12.1H268z"/>
	<path class="st1" d="M283.3,132.5h6v0.7h-7.4v-12.7h7.2v0.7h-5.8v5.2h5.4v0.6h-5.4V132.5z"/>
</g>
</svg>
